Coordinates
version=1
nRows=12
nColumns=42
inDegrees=yes

Units are S.I. units (second, meters, Newtons, ...)
If the header above contains a line with 'inDegrees', this indicates whether rotational values are in degrees (yes) or radians (no).

endheader
time	pelvis_tilt	pelvis_list	pelvis_rotation	pelvis_tx	pelvis_ty	pelvis_tz	hip_flexion_r	hip_adduction_r	hip_rotation_r	knee_angle_r	knee_adduction_r	knee_angle_r_beta	ankle_angle_r	subtalar_angle_r	mtp_angle_r	hip_flexion_l	hip_adduction_l	hip_rotation_l	knee_angle_l	knee_adduction_l	knee_angle_l_beta	ankle_angle_l	subtalar_angle_l	mtp_angle_l	lumbar_extension	lumbar_bending	lumbar_rotation	arm_flex_r	arm_add_r	arm_rot_r	elbow_flex_r	pro_sup_r	wrist_flex_r	wrist_dev_r	arm_flex_l	arm_add_l	arm_rot_l	elbow_flex_l	pro_sup_l	wrist_flex_l	wrist_dev_l
      0.00000000	      9.89097744	     -0.01489869	     -6.61470124	     -1.03911833	      0.84787222	     -0.33954169	     12.66439945	     -3.74482788	    -18.31353362	     52.44520018	    -12.61327271	      0.91534142	     12.21319984	     -0.78662460	     -9.57167864	    -11.12466450	      2.76268348	     -9.78611447	      9.52085928	      4.38455902	      0.16617034	     17.30310558	     -3.43264448	     -9.57167864	    -24.10006992	     -2.14529885	      2.91160758	      3.88188201	    -15.92680969	     -3.97554368	     36.67057385	     90.00000001	      0.00000000	      0.00000000	      0.95620380	     -7.66045564	    -31.38931887	     32.62555079	     90.00000001	      0.00000000	      0.00000000
      0.01000000	      9.70549460	     -0.29301604	     -6.25622364	     -1.02482157	      0.84767990	     -0.34031666	     13.90080050	     -3.13871403	    -18.59301737	     49.46715954	    -11.67083834	      0.86336481	     12.66411102	     -0.72030307	     -9.49401181	    -12.68941874	      2.55071922	    -10.02091175	      8.29145297	      4.49093772	      0.14471315	     17.82929704	     -2.17043271	     -9.49401181	    -23.86092330	     -1.50701352	      2.02274916	      4.03925235	    -15.72864725	     -4.15153649	     36.09519658	     90.00000001	      0.00000000	      0.00000000	      0.85717232	     -7.77581367	    -29.01903070	     34.88799574	     90.00000001	      0.00000000	      0.00000000
      0.02000000	      9.71696569	     -0.61407225	     -5.71944403	     -1.01023783	      0.84729303	     -0.34116603	     14.59966929	     -2.54290335	    -19.08525821	     46.01751990	    -10.64117840	      0.80315724	     12.81698117	     -0.64613038	     -9.39026416	    -14.38335072	      2.26684617	    -10.28252022	      7.27447734	      4.54187265	      0.12696358	     18.32294080	     -1.02044961	     -9.39026416	    -23.81621102	     -0.80217187	      1.09484497	      3.99741153	    -15.59520029	     -4.37291587	     35.83171307	     90.00000001	      0.00000000	      0.00000000	      0.61495090	     -8.25791133	    -25.22270862	     37.38748072	     90.00000001	      0.00000000	      0.00000000
      0.03000000	      9.59163520	     -0.75312110	     -5.23259124	     -0.99564559	      0.84612167	     -0.34195104	     15.40220654	     -2.23628538	    -19.48033923	     42.52911078	     -9.40506353	      0.74227301	     13.08362228	     -0.65785544	     -9.27689157	    -15.84069785	      2.13292951	    -10.53719128	      6.39786753	      4.64329336	      0.11166385	     18.81885647	      0.14650480	     -9.27689157	    -23.58787811	     -0.31715168	      0.14330682	      3.95727281	    -15.45432771	     -4.55613053	     35.51997928	     90.00000001	      0.00000000	      0.00000000	      0.49162790	     -8.71673227	    -22.58555764	     39.96529818	     90.00000001	      0.00000000	      0.00000000
      0.04000000	      9.54835365	     -0.76912096	     -4.77336659	     -0.98093871	      0.84456343	     -0.34275817	     15.97337438	     -2.14135999	    -19.91807948	     38.88217397	     -8.08073803	      0.67862196	     13.36906747	     -0.51593887	     -9.19153775	    -17.33405138	      2.18097422	    -10.85588678	      5.62008898	      4.66521087	      0.09808906	     19.34016994	      1.35112484	     -9.19153775	    -23.41839885	      0.01709405	     -0.83898825	      3.97471827	    -15.33253833	     -4.71198554	     35.10385517	     90.00000001	      0.00000000	      0.00000000	      0.50335231	     -9.10879072	    -20.83478587	     42.45687263	     90.00000001	      0.00000000	      0.00000000
      0.05000000	      9.49518285	     -0.67394839	     -4.34713590	     -0.96616237	      0.84255753	     -0.34351673	     16.42720641	     -2.24852611	    -20.44503654	     35.13755706	     -6.66181695	      0.61326606	     13.68615368	      0.00196968	     -9.12262294	    -18.74391680	      2.33205631	    -11.26676166	      4.99609274	      4.70151949	      0.08719827	     19.85694801	      2.51060647	     -9.12262294	    -23.21697448	      0.21414028	     -1.76541295	      3.92364023	    -15.23907378	     -4.89889656	     34.76548070	     90.00000001	      0.00000000	      0.00000000	      0.65564656	     -9.47972471	    -19.49423846	     44.72385473	     90.00000001	      0.00000000	      0.00000000
      0.06000000	      9.47753196	     -0.58506782	     -3.95076051	     -0.95134744	      0.84022973	     -0.34410960	     16.69775433	     -2.34114029	    -21.21734021	     31.25688754	     -5.34211234	      0.54553560	     13.97494352	      1.14528372	     -9.04689846	    -20.12875072	      2.45453772	    -11.82271028	      4.53844173	      4.76195186	      0.07921075	     20.39071414	      3.73474188	     -9.04689846	    -23.05392898	      0.39394400	     -2.53498166	      3.77664972	    -15.17873072	     -5.18382332	     34.52066933	     90.00000001	      0.00000000	      0.00000000	      1.03646696	     -9.83499164	    -18.33009343	     46.64040061	     90.00000001	      0.00000000	      0.00000000
      0.07000000	      9.43822884	     -0.41688810	     -3.60192865	     -0.93649895	      0.83754214	     -0.34460334	     16.90880029	     -2.55908726	    -22.20799936	     27.42239930	     -4.05561201	      0.47861116	     14.31236096	      3.11844762	     -8.95381442	    -21.39638213	      2.65120739	    -12.58353856	      4.28390055	      4.81756146	      0.07476817	     21.00621322	      5.07499129	     -8.95381442	    -22.85919497	      0.46982166	     -3.20278880	      3.56981128	    -15.13995616	     -5.58045758	     34.34529231	     90.00000001	      0.00000000	      0.00000000	      1.54640699	    -10.14655580	    -17.40149139	     48.34846372	     90.00000001	      0.00000000	      0.00000000
      0.08000000	      9.39289810	     -0.12406476	     -3.35232931	     -0.92176340	      0.83457796	     -0.34500590	     17.06437078	     -2.91792843	    -23.03385334	     23.72106111	     -2.67718336	      0.41401062	     14.69876282	      5.41054115	     -8.88475602	    -22.61162441	      3.04071745	    -13.33041444	      4.09408508	      4.79019187	      0.07145526	     21.53275635	      6.24937943	     -8.88475602	    -22.67445643	      0.38001649	     -3.76978727	      3.37940631	    -15.11924612	     -5.95217650	     34.13708740	     90.00000001	      0.00000000	      0.00000000	      2.09595115	    -10.46254286	    -16.53833493	     50.02865486	     90.00000001	      0.00000000	      0.00000000
      0.09000000	      9.28384287	      0.20312510	     -3.08910948	     -0.90696750	      0.83128275	     -0.34527396	     17.34073974	     -3.36501770	    -24.57376305	     20.41083349	     -1.56697353	      0.35623625	     15.09073626	      9.12437419	     -8.74104695	    -23.58858736	      3.37442598	    -14.42064877	      4.28111457	      4.78687917	      0.07471954	     22.30913592	      7.82515745	     -8.74104695	    -22.42709722	      0.24788905	     -4.24608656	      3.06649459	    -15.07234436	     -6.61804159	     34.11582388	     90.00000001	      0.00000000	      0.00000000	      2.70559389	    -10.79670899	    -15.65601432	     51.56197991	     90.00000001	      0.00000000	      0.00000000
      0.10000000	      9.19305359	      0.53253177	     -2.91846462	     -0.89231566	      0.82799128	     -0.34542417	     17.40574222	     -3.71030293	    -25.15809820	     17.13133790	     -0.22823359	      0.29899825	     15.12650367	     11.61214769	     -8.68915862	    -24.67867292	      3.76398454	    -14.98250533	      4.25462840	      4.76605012	      0.07425727	     22.66459252	      8.57542885	     -8.68915862	    -22.24133300	      0.08727420	     -4.62516746	      2.82201618	    -15.10693571	     -6.96742591	     34.01432838	     90.00000001	      0.00000000	      0.00000000	      3.23416062	    -11.17120789	    -14.66986039	     53.19678723	     90.00000001	      0.00000000	      0.00000000
      0.11000000	      8.99825161	      1.02578511	     -2.79118758	     -0.87788404	      0.82452352	     -0.34555978	     17.66637480	     -4.23916207	    -25.50074410	     14.34881183	      0.99766000	      0.25043401	     14.83697461	     13.89319148	     -8.65387813	    -25.50854126	      4.32032818	    -15.38163870	      4.45196049	      4.65273335	      0.07770137	     23.03347196	      9.17430935	     -8.65387813	    -21.98952806	     -0.25768857	     -4.95485898	      2.55199429	    -15.14913802	     -7.32380473	     34.03821528	     90.00000001	      0.00000000	      0.00000000	      3.82747163	    -11.49806342	    -13.87975255	     54.73540222	     90.00000001	      0.00000000	      0.00000000
